<svg xmlns="http://www.w3.org/2000/svg" width="1200" height="630" viewBox="0 0 1200 630">
  <defs>
    <linearGradient id="bg" x1="0%" y1="0%" x2="100%" y2="100%">
      <stop offset="0%" stop-color="#0071e3"/>
      <stop offset="100%" stop-color="#0051a8"/>
    </linearGradient>
  </defs>
  <rect width="1200" height="630" fill="url(#bg)"/>
  <g transform="translate(80, 80)">
    <rect x="0" y="0" width="120" height="150" rx="8" fill="white" opacity="0.95"/>
    <rect x="0" y="0" width="120" height="150" rx="8" fill="none" stroke="white" stroke-width="2"/>
    <text x="60" y="50" font-family="Arial, sans-serif" font-size="64" font-weight="bold" fill="#0071e3" text-anchor="middle">PDF</text>
    <rect x="15" y="80" width="90" height="6" rx="3" fill="#0071e3" opacity="0.3"/>
    <rect x="15" y="94" width="70" height="6" rx="3" fill="#0071e3" opacity="0.3"/>
    <rect x="15" y="108" width="80" height="6" rx="3" fill="#0071e3" opacity="0.3"/>
    <path d="M95 10 L110 25 L95 25 Z" fill="#0071e3" opacity="0.4"/>
  </g>
  <text x="240" y="160" font-family="Arial, Helvetica, sans-serif" font-size="72" font-weight="bold" fill="white" letter-spacing="-1">Files in PDF</text>
  <text x="240" y="220" font-family="Arial, Helvetica, sans-serif" font-size="32" fill="white" opacity="0.85">Extract embedded files from PDFs</text>
  <g transform="translate(240, 280)">
    <circle cx="12" cy="12" r="5" fill="white" opacity="0.7"/>
    <text x="28" y="18" font-family="Arial, Helvetica, sans-serif" font-size="20" fill="white" opacity="0.9">Upload a PDF &amp; find attachments, images, and embedded documents</text>
  </g>
  <g transform="translate(240, 325)">
    <circle cx="12" cy="12" r="5" fill="white" opacity="0.7"/>
    <text x="28" y="18" font-family="Arial, Helvetica, sans-serif" font-size="20" fill="white" opacity="0.9">Free online tool — no sign-up required</text>
  </g>
  <text x="600" y="580" font-family="Arial, Helvetica, sans-serif" font-size="18" fill="white" opacity="0.5" text-anchor="middle">filesinpdf.com</text>
</svg>
